<?xml version="1.0" standalone="no"?>
<!DOCTYPE svg PUBLIC "-//W3C//DTD SVG 20010904//EN"
 "http://www.w3.org/TR/2001/REC-SVG-20010904/DTD/svg10.dtd">
<svg version="1.0" xmlns="http://www.w3.org/2000/svg"
 width="1024.000000pt" height="1024.000000pt" viewBox="0 0 1024.000000 1024.000000"
 preserveAspectRatio="xMidYMid meet">

<g transform="translate(0.000000,1024.000000) scale(0.100000,-0.100000)"
fill="#000000" stroke="none">
<path d="M2665 6990 c-273 -36 -511 -264 -554 -530 -6 -36 -11 -140 -11 -232
l0 -168 -264 0 -264 0 -26 -30 c-14 -17 -30 -48 -35 -68 -4 -20 -21 -219 -35
-442 -15 -223 -36 -529 -46 -680 -42 -599 -49 -717 -44 -760 17 -150 109 -276
253 -348 l75 -37 1034 4 c865 2 1042 5 1076 17 127 45 245 182 276 324 10 46
8 101 -9 325 -11 149 -25 344 -31 435 -9 148 -21 315 -35 485 -3 33 -12 164
-20 290 -26 397 -27 404 -76 451 l-30 29 -260 3 -259 3 0 179 c0 210 -12 276
-72 398 -48 97 -148 210 -231 260 -77 46 -176 80 -270 92 -45 5 -82 9 -82 9 0
-1 -27 -5 -60 -9z m238 -239 c85 -33 178 -123 223 -216 29 -62 36 -90 45 -184
6 -62 8 -133 5 -159 -2 -26 -5 -66 -5 -89 l-1 -43 -431 0 -431 0 4 198 c3 196
3 197 34 262 33 71 114 166 170 201 102 63 268 76 387 30z m659 -1038 c36 -32
19 -293 -31 -466 -39 -133 -134 -315 -218 -414 -54 -64 -191 -167 -343 -259
-199 -120 -233 -173 -256 -400 -7 -73 -19 -145 -27 -161 -32 -60 -65 -65 -87
-13 -31 75 9 371 62 461 15 24 49 69 76 99 153 170 309 369 433 554 77 115
139 216 137 225 -10 48 -56 7 -194 -175 -97 -128 -365 -417 -376 -406 -5 5 -8
96 -6 203 l3 194 32 65 c39 79 110 187 171 259 68 80 210 167 332 203 160 47
262 58 292 31z m-1409 -204 c195 -40 307 -119 381 -271 50 -102 66 -185 66
-360 l0 -147 -37 5 c-55 8 -219 62 -289 96 -210 102 -327 284 -353 548 -16
167 -1 176 232 129z"/>
<path d="M4560 6378 c0 -40 -1 -306 -3 -591 l-2 -517 45 -1 c25 0 77 -1 115
-2 l70 -2 3 280 2 279 33 -45 c52 -73 387 -498 397 -504 7 -4 248 -9 293 -6 4
1 -24 40 -61 89 -134 171 -306 388 -364 459 l-59 72 34 38 c19 21 56 65 83 99
27 33 110 131 184 218 74 87 143 169 153 182 l19 24 -166 0 -165 0 -118 -157
c-64 -87 -150 -200 -190 -251 l-73 -94 0 251 0 251 -115 0 -115 0 0 -72z"/>
<path d="M5725 6114 c-191 -61 -310 -282 -275 -510 22 -143 105 -255 236 -316
55 -26 82 -32 160 -36 199 -10 327 61 387 215 12 31 13 42 4 45 -7 3 -61 6
-122 7 -106 2 -110 1 -120 -21 -26 -59 -167 -77 -233 -29 -28 20 -72 93 -72
119 0 9 72 12 285 12 l285 0 0 80 c0 149 -34 243 -121 335 -73 77 -148 108
-269 112 -66 2 -110 -2 -145 -13z m214 -194 c39 -19 71 -69 71 -109 0 -20 -4
-21 -165 -21 l-165 0 19 38 c52 100 150 138 240 92z"/>
<path d="M6340 6032 l0 -100 197 -1 c108 -1 198 -3 200 -5 3 -3 -123 -156
-256 -311 -160 -185 -151 -169 -151 -262 l0 -83 360 0 360 0 0 90 0 90 -192 0
c-106 0 -199 4 -207 9 -10 6 36 67 183 244 l195 235 3 94 3 93 -347 3 -348 3
0 -99z"/>
<path d="M7173 6122 l-63 -3 0 -94 0 -95 200 0 c110 0 200 -3 200 -6 0 -9 -84
-110 -292 -351 l-108 -124 0 -90 0 -89 353 0 352 0 -2 87 -1 88 -202 3 -202 2
18 28 c10 15 72 92 139 172 66 80 149 180 183 223 l63 78 -3 87 -3 87 -285 0
c-157 0 -313 -1 -347 -3z"/>
<path d="M7952 6122 c-74 -3 -83 -5 -77 -20 54 -148 125 -332 283 -735 43
-111 45 -120 31 -145 -22 -40 -74 -70 -135 -78 -30 -3 -56 -10 -59 -14 -3 -5
3 -49 12 -99 l17 -91 41 0 c108 0 240 65 294 144 39 57 78 161 304 799 74 208
82 237 66 237 -11 1 -70 1 -131 1 l-113 1 -63 -204 c-34 -112 -72 -234 -83
-271 -11 -38 -23 -66 -26 -63 -4 3 -47 127 -97 274 l-91 267 -45 0 c-25 0 -83
-1 -128 -3z"/>
<path d="M4510 4887 l0 -103 173 0 172 0 -2 -457 -1 -457 119 0 119 0 2 458 3
457 163 0 162 0 0 102 0 103 -455 0 -455 0 0 -103z"/>
<path d="M6360 4809 l0 -89 -65 0 -65 0 0 -100 0 -100 63 0 62 0 0 -228 c1
-256 10 -304 68 -360 50 -48 102 -62 238 -62 l119 0 0 95 0 95 -74 0 c-69 0
-76 2 -95 26 -20 25 -21 39 -21 233 l0 206 95 -3 95 -3 0 100 0 101 -95 0 -95
0 0 88 0 87 -115 1 -115 2 0 -89z"/>
<path d="M5700 4742 c-108 -8 -197 -47 -265 -117 -106 -109 -149 -279 -110
-443 32 -137 105 -231 223 -289 76 -38 76 -38 201 -38 121 0 129 1 193 32 162
77 238 209 238 416 0 82 -13 149 -43 219 -20 48 -99 133 -152 163 -71 41 -187
65 -285 57z m129 -216 c77 -41 117 -134 109 -255 -8 -109 -55 -179 -136 -201
-91 -24 -178 11 -222 90 -21 39 -24 58 -25 140 0 79 4 102 22 135 25 46 58 80
93 94 38 15 127 13 159 -3z"/>
<path d="M7160 4731 c-104 -21 -218 -123 -266 -237 -28 -66 -29 -76 -29 -219
0 -145 1 -152 29 -210 38 -76 111 -149 183 -182 77 -35 230 -44 318 -18 68 19
134 61 169 108 33 43 69 124 61 137 -4 6 -58 10 -125 10 l-119 0 -13 -27 c-20
-42 -78 -66 -137 -58 -68 9 -109 37 -132 91 -37 83 -50 79 259 76 251 -3 272
-2 279 14 13 35 -15 233 -42 292 -55 119 -138 190 -256 216 -71 17 -120 18
-179 7z m156 -207 c36 -17 74 -76 74 -113 0 -19 -8 -20 -151 -23 -83 -2 -152
-1 -154 1 -7 7 26 76 48 100 46 50 121 64 183 35z"/>
<path d="M7955 4727 c-156 -52 -229 -173 -200 -335 12 -69 71 -123 170 -155
44 -14 107 -31 140 -38 79 -15 110 -32 125 -68 29 -70 -22 -117 -117 -109 -64
6 -104 32 -117 77 l-9 31 -113 0 -113 0 6 -32 c19 -106 81 -180 182 -220 46
-18 77 -22 176 -22 105 -1 126 2 169 22 117 54 166 121 174 237 4 61 1 81 -17
119 -38 78 -139 128 -314 156 -94 15 -127 37 -127 84 0 51 36 79 104 80 59 1
102 -21 121 -62 9 -21 17 -22 112 -22 115 0 113 -2 87 73 -22 65 -91 139 -156
167 -65 29 -219 38 -283 17z"/>
</g>
</svg>
